<?xml version="1.0" encoding="UTF-8"?>
<svg version="1.1" xmlns="http://www.w3.org/2000/svg" width="3200" height="893">
<path d="M0 0 C4.12065085 0.56990543 7.63721055 1.49789532 11.46484375 3.1171875 C12.50036377 3.55345459 13.53588379 3.98972168 14.6027832 4.43920898 C15.70323975 4.91302002 16.80369629 5.38683105 17.9375 5.875 C19.66262817 6.61375366 19.66262817 6.61375366 21.42260742 7.36743164 C40.25272756 15.49994283 58.41594612 24.42696254 76 35 C76.80920898 35.48581543 77.61841797 35.97163086 78.45214844 36.47216797 C94.86468066 46.40397325 110.34601104 57.61962261 125 70 C125.49750259 70.41548599 125.99500519 70.83097198 126.50758362 71.25904846 C135.08534727 78.42422481 143.2239395 85.9047003 151.09741211 93.83666992 C152.82248477 95.57254731 154.55811991 97.2973509 156.29492188 99.02148438 C162.98474399 105.70293702 169.17259378 112.54236707 175 120 C175.48428467 120.60465088 175.96856934 121.20930176 176.4675293 121.83227539 C198 148.73416627 198 148.73416627 198 155 C198.66 155 199.32 155 200 155 C200.29197266 153.81470703 200.29197266 153.81470703 200.58984375 152.60546875 C202.53369146 147.63546478 205.46810925 143.6355816 208.5625 139.3125 C209.51358643 137.97131104 209.51358643 137.97131104 210.48388672 136.60302734 C215.08124342 130.16860014 219.85030025 124.00344186 225 118 C226.17369141 116.55173828 226.17369141 116.55173828 227.37109375 115.07421875 C234.12614553 106.82225862 241.54588883 99.23904328 249.0625 91.6875 C249.82241745 90.91981796 249.82241745 90.91981796 250.59768677 90.1366272 C257.39497852 83.28465927 264.43705287 77.01504372 272 71 C273.02756057 70.13662429 274.05096064 69.26821749 275.06640625 68.390625 C295.37418345 50.97487866 318.33698037 36.40123442 342 24 C342.94794434 23.50145508 343.89588867 23.00291016 344.87255859 22.48925781 C387.94393047 0 387.94393047 0 398 0 C400.65639896 20.21396053 403.15735047 40.44050122 405.50781012 60.6925 C405.94532554 64.45838252 406.38511645 68.22399952 406.82458496 71.98965454 C407.67853896 79.30987615 408.53048944 86.63032949 409.38168886 93.95087186 C410.37479604 102.49122921 411.36991718 111.03135156 412.36508319 119.57146921 C414.1391846 134.79672881 415.91142546 150.02220439 417.68261719 165.24780273 C419.39986722 180.00969644 421.11859348 194.77141733 422.83886719 209.53295898 C424.71931988 225.66900684 426.5990694 241.80513628 428.47749496 257.94142026 C428.57664012 258.79310921 428.67578528 259.64479815 428.77793483 260.52229586 C428.9770133 262.23244645 429.1760902 263.94259722 429.37516554 265.65274817 C430.06814081 271.60538312 430.7615932 277.55796237 431.45520782 283.51052284 C432.29778638 290.74169825 433.13951768 297.9729717 433.98016527 305.20437185 C434.40897469 308.89291267 434.83815301 312.58140958 435.26831818 316.26979256 C435.73353039 320.25880383 436.19697143 324.24801881 436.66021729 328.23725891 C436.79756294 329.41259054 436.9349086 330.58792217 437.07641625 331.79886991 C437.1993517 332.86010357 437.32228714 333.92133724 437.44894791 335.0147295 C437.55613907 335.93583446 437.66333024 336.85693943 437.77376962 337.80595666 C438 340 438 340 438 342 C437.41847168 342.03963867 436.83694336 342.07927734 436.23779297 342.12011719 C378.3547501 346.21983574 321.38519346 366.12542337 278.25390625 405.93359375 C276.2536994 407.76740558 274.20656762 409.51037367 272.125 411.25 C234.58372774 444.20205862 213.56011921 493.12615279 200 540 C198 539 198 539 197.19726562 536.89648438 C196.93623047 535.97158203 196.67519531 535.04667969 196.40625 534.09375 C195.95209717 532.53164795 195.95209717 532.53164795 195.48876953 530.93798828 C194.99932861 529.23618408 194.99932861 529.23618408 194.5 527.5 C184.29703046 493.3122617 169.09109731 460.4415939 146 433 C145.03508651 431.83078672 144.07024421 430.66151468 143.10546875 429.4921875 C133.11705235 417.50674582 122.36715854 406.54686288 110 397 C109.14462646 396.32203369 109.14462646 396.32203369 108.27197266 395.63037109 C66.57472697 362.60121192 13.7391965 345.12369418 -39 342 C-38.42692253 332.32351728 -37.611393 322.72437515 -36.48181152 313.09484863 C-36.32873627 311.76699092 -36.17597928 310.43909649 -36.0235076 309.11116934 C-35.60907432 305.50969054 -35.19019484 301.90874153 -34.77050281 298.3078723 C-34.3165946 294.40643027 -33.86692196 290.50449968 -33.41670227 286.60263062 C-32.53648714 278.97988736 -31.65245231 271.35759182 -30.76712 263.73544139 C-29.73541956 254.85174826 -28.70769328 245.96759671 -27.68015045 237.08342189 C-25.84680834 221.23333641 -24.01010156 205.38364271 -22.17138672 189.53417969 C-20.3882777 174.16398944 -18.60722568 158.79356282 -16.82861328 143.42285156 C-16.66407722 142.0009417 -16.66407722 142.0009417 -16.49621719 140.55030638 C-16.05527302 136.73966083 -15.61433143 132.92901499 -15.17339608 129.11836842 C-13.47606472 114.45023366 -11.77722364 99.78227371 -10.07807788 85.11434904 C-9.56524326 80.68727412 -9.05246882 76.26019225 -8.53983879 71.83309364 C-7.4627119 62.5311154 -6.38505675 53.22919897 -5.3057059 43.92747849 C-4.85956167 40.08260363 -4.41369898 36.23769673 -3.96863747 32.39269638 C-3.48618043 28.22477219 -3.00226278 24.05701889 -2.51818848 19.88928223 C-2.37781835 18.67480046 -2.23744823 17.46031869 -2.09282446 16.20903444 C-1.46272334 10.79433668 -0.81052467 5.39082325 0 0 Z M190 185 C187.3949787 190.74342171 187.6940231 196.53239404 187.69921875 202.71484375 C187.69493362 203.84394669 187.6906485 204.97304962 187.68623352 206.1363678 C187.68050215 208.51920909 187.67998115 210.90206788 187.68432617 213.28491211 C187.68748598 216.92136602 187.66401146 220.55700594 187.63867188 224.19335938 C187.63639869 226.51301981 187.63569547 228.83268243 187.63671875 231.15234375 C187.627509 232.23482895 187.61829926 233.31731415 187.60881042 234.43260193 C187.65276708 241.63911215 188.18152254 246.94664942 193.25 252.4375 C196.80573539 254.4578042 198.96311062 254.50461117 203 254 C206.56704297 252.62182431 207.72849464 251.47983177 209.61572266 248.14453125 C211.75618424 242.86007025 211.42881256 237.36762339 211.3984375 231.75 C211.40130768 230.57791992 211.40417786 229.40583984 211.40713501 228.19824219 C211.4091709 225.72720861 211.40367443 223.25615874 211.39111328 220.78515625 C211.37505386 217.01265267 211.3909792 213.24122044 211.41015625 209.46875 C211.40817374 207.06249765 211.40432989 204.65624596 211.3984375 202.25 C211.40451019 201.1269043 211.41058289 200.00380859 211.4168396 198.84667969 C211.35526817 191.95802305 210.95949028 186.52862302 206.375 181.0625 C199.84022554 178.13904827 194.237171 179.09364042 190 185 Z M146.1875 218.3125 C137.41190736 227.39206648 131.1198202 238.07675565 127 250 C126.68160156 250.84820312 126.36320313 251.69640625 126.03515625 252.5703125 C120.22945319 270.92382541 123.11393669 292.35488568 131.74194336 309.18139648 C134.96827441 315.1950672 138.65384931 320.7295146 143 326 C143.51691406 326.63035156 144.03382813 327.26070313 144.56640625 327.91015625 C157.55344748 342.1991565 178.13646909 349.94396675 196.99609375 351.125 C218.27925013 351.74982661 237.28827649 343.74986254 252.66015625 329.30078125 C253.81837891 328.16189453 253.81837891 328.16189453 255 327 C255.69996094 326.31292969 256.39992188 325.62585938 257.12109375 324.91796875 C270.23646161 311.13788439 277.56557321 292.07852339 278.3125 273.1875 C277.76940798 252.00691117 268.59879022 233.85855517 254 219 C253.37867188 218.36578125 252.75734375 217.7315625 252.1171875 217.078125 C248.31495882 213.49755091 245.42964529 211.89945101 240 212 C237.21491684 213.13749195 237.21491684 213.13749195 235 215 C234.4225 215.4125 233.845 215.825 233.25 216.25 C231.21735531 219.09570256 231.116949 221.55000441 231 225 C232.86180997 229.59042982 235.16550706 232.38783972 238.8125 235.6875 C243.90521594 240.64678234 247.12633311 245.5252693 250 252 C250.4125 252.87785156 250.825 253.75570312 251.25 254.66015625 C256.15006267 266.75718595 255.72753776 281.95942873 251.25 294.1171875 C244.97050335 308.59927664 235.77176917 319.26763049 220.890625 325.25 C206.85277343 329.90772034 191.71039791 329.69301535 178 324 C164.28598817 317.08928386 154.73112897 306.25889441 149.6875 291.8125 C145.07432958 276.76705622 145.99209483 261.21675296 153.25 247.125 C156.2969032 241.8411299 159.70343363 237.31702621 164 233 C164.50015625 232.49726563 165.0003125 231.99453125 165.515625 231.4765625 C165.96421875 231.03054688 166.4128125 230.58453125 166.875 230.125 C169.61346146 227.38653854 169.95538144 226.59119587 170.25 222.6875 C169.97973382 218.70107385 169.53712014 217.04454416 167 214 C158.60579844 208.82059904 152.74518256 211.8418182 146.1875 218.3125 Z " fill="#0076D4" transform="translate(232,177)"/>
<path d="M0 0 C3.75001511 1.36036131 6.81183582 3.07050471 10.08984375 5.3359375 C11.51393555 6.31433594 11.51393555 6.31433594 12.96679688 7.3125 C14.43729492 8.3334375 14.43729492 8.3334375 15.9375 9.375 C17.88398208 10.71633814 19.83059307 12.05748923 21.77734375 13.3984375 C22.63577881 13.99317871 23.49421387 14.58791992 24.37866211 15.20068359 C26.97314983 17.09375559 26.97314983 17.09375559 30.01965427 18.37066555 C34.62568466 22.43421907 34.56524585 26.95923486 35.30686951 32.8686676 C35.48264985 34.09791912 35.65843019 35.32717065 35.8395372 36.59367222 C36.32216516 40.00717614 36.78057842 43.42238793 37.22912896 46.84043491 C37.71904317 50.52845371 38.23980868 54.21212616 38.75683594 57.89642334 C39.65000373 64.29184748 40.52351359 70.68971173 41.38384819 77.08963203 C42.63524765 86.39832579 43.91635339 95.70274346 45.20451523 105.00641238 C47.303833 120.17453862 49.37922466 135.34583899 51.43969727 150.51928711 C53.42412123 165.13232259 55.41933128 179.7438135 57.42993164 194.35327148 C57.55283829 195.24636666 57.67574493 196.13946184 57.80237602 197.05962051 C58.42004798 201.54739348 59.0379397 206.03513616 59.65593612 210.52286446 C62.71676922 232.75122014 65.77184928 254.98036017 68.80479431 277.21253967 C68.91246664 278.0017947 69.02013897 278.79104972 69.13107409 279.60422156 C70.17819126 287.28089952 71.22422419 294.95772417 72.26808147 302.63484611 C72.76059066 306.25701283 73.25336519 309.8791434 73.74630737 313.50125122 C73.88905595 314.55025098 73.88905595 314.55025098 74.03468833 315.62044265 C75.39497692 325.61194125 76.7755016 335.60044018 78.16897583 345.58737183 C78.50359458 347.9933641 78.83813853 350.39936678 79.17260075 352.80538082 C79.78145547 357.18513509 80.39617642 361.56400693 81.01452541 365.94242954 C81.28194741 367.86380215 81.54913926 369.78520682 81.8160553 371.70664978 C81.93775955 372.55576632 82.0594638 373.40488286 82.18485606 374.2797302 C82.82119821 378.90427737 83.11833641 383.33162556 83 388 C77.22213402 386.14636845 71.55342106 384.08498762 65.89648438 381.89160156 C-12.34961755 351.70358402 -96.21985008 353.86353518 -173.0234375 387.7421875 C-179.49468074 390.64891011 -185.84979358 393.75699631 -192.14111328 397.03369141 C-193.97255617 397.98573382 -195.81181586 398.92113802 -197.65234375 399.85546875 C-218.28218413 410.45312174 -238.08728949 423.60531021 -255.41137695 439.04296875 C-258.78835422 442.04519221 -262.19945585 444.58198913 -266 447 C-264.5158627 443.51345524 -262.53785948 441.35808928 -259.8125 438.75 C-256.91706691 435.9283359 -254.16254842 433.09529573 -251.5625 430 C-248.20912793 426.09929593 -244.50556394 422.72808916 -240.64453125 419.3359375 C-238.91057428 417.8043182 -237.19845792 416.24753193 -235.51171875 414.6640625 C-215.65671444 396.04434678 -192.20239305 380.36165274 -168 368 C-167.14148438 367.55849609 -166.28296875 367.11699219 -165.3984375 366.66210938 C-150.69080611 359.17211191 -135.67727843 353.14135291 -120 348 C-118.5452124 347.52071045 -118.5452124 347.52071045 -117.06103516 347.03173828 C-66.5207454 330.66965091 -6.9881402 324.99764701 45 338 C44.87735421 337.43291122 44.75470842 336.86582244 44.62834609 336.28154916 C43.13064904 329.11161612 42.09171377 321.91678936 41.12704468 314.65815735 C40.94822429 313.33041805 40.76912283 312.00271657 40.5897671 310.67504948 C40.10111171 307.05163811 39.6164649 303.42770053 39.1325202 299.80365741 C38.60862947 295.88583165 38.08100315 291.9685087 37.55387878 288.05111694 C36.52330888 280.38763493 35.49626915 272.72368386 34.47056673 265.05954901 C33.63690473 258.8306821 32.8020744 252.60197284 31.96641922 246.37337303 C31.84734967 245.48585803 31.72828011 244.59834303 31.60560239 243.68393364 C31.36369556 241.88083195 31.12178763 240.07773041 30.8798786 238.27462902 C28.6137928 221.38277622 26.35188862 204.49036544 24.09128018 187.59777888 C22.02313275 172.14434071 19.94983455 156.69159875 17.87409644 141.23917852 C15.74158098 125.36375332 13.61246986 109.48787502 11.4870764 93.61149472 C10.29422344 84.70149963 9.10003198 75.7916889 7.90229416 66.88234901 C6.88321567 59.30166204 5.8673617 51.7205515 4.85567258 44.13887469 C4.33951091 40.27138794 3.82187174 36.4041143 3.30022621 32.53736305 C2.82262872 28.99682496 2.34929809 25.45574337 1.87934084 21.91418328 C1.62800609 20.02854948 1.37214683 18.14352046 1.11611974 16.25851804 C0.39497433 10.79266528 -0.20743533 5.51445191 0 0 Z " fill="#0076D4" transform="translate(728,270)"/>
<path d="M0 0 C-0.67506824 12.86291387 -2.58602752 25.58980459 -4.30712891 38.34399414 C-4.65090588 40.91171161 -4.99436237 43.47947201 -5.33752441 46.04727173 C-6.07557854 51.56610239 -6.81628248 57.08457208 -7.55882645 62.60280037 C-8.6400034 70.63761335 -9.7171023 78.67296906 -10.79328255 86.70845263 C-12.54992031 99.82384187 -14.30982316 112.93879081 -16.07177734 126.0534668 C-17.76493144 138.65609735 -19.45654061 151.25893362 -21.14599609 163.86206055 C-21.30096304 165.01808871 -21.30096304 165.01808871 -21.45906062 166.19747097 C-21.87488187 169.29948317 -22.29069015 172.4014971 -22.70648173 175.50351328 C-25.3839539 195.4788036 -28.06244612 215.4539572 -30.74380493 235.4287262 C-30.83513998 236.10913819 -30.92647503 236.78955018 -31.0205778 237.49058072 C-32.00037844 244.78943861 -32.9807138 252.08822418 -33.96207619 259.38687229 C-34.3039286 261.92947346 -34.64577323 264.47207567 -34.98760986 267.01467896 C-35.15426458 268.25422055 -35.3209193 269.49376215 -35.49262416 270.77086562 C-36.51368118 278.36921525 -37.53055207 285.96811292 -38.54424489 293.56744844 C-39.19740334 298.4624184 -39.85221816 303.35716604 -40.50725245 308.25188529 C-40.81284168 310.5388206 -41.11762606 312.82586362 -41.42155576 315.11302006 C-41.83591552 318.23080978 -42.2530142 321.34822147 -42.67074585 324.46556091 C-42.79160482 325.38059493 -42.91246379 326.29562896 -43.03698516 327.23839128 C-43.14990157 328.076988 -43.26281799 328.91558472 -43.37915611 329.77959347 C-43.47558132 330.50306247 -43.57200652 331.22653147 -43.6713537 331.97192377 C-44.00321023 334.01981035 -44.46760414 335.99574092 -45 338 C-44.32533691 337.88406494 -43.65067383 337.76812988 -42.95556641 337.64868164 C-39.84597315 337.11640652 -36.73550397 336.58942594 -33.625 336.0625 C-32.56410156 335.88009766 -31.50320312 335.69769531 -30.41015625 335.50976562 C50.82592895 321.80429113 138.46358515 344.10471346 205.33203125 391.35546875 C227.33129405 407.12515753 248.43998471 425.36698203 266 446 C261.58385231 446 259.53630156 443.15521223 256.4375 440.3125 C193.85870944 384.63330443 108.61895006 357.56114913 25.74414062 361.140625 C19.79087433 361.49920641 13.90138134 362.14516499 8 363 C7.10522949 363.12890625 6.21045898 363.2578125 5.28857422 363.390625 C-25.15373664 367.93881047 -54.81534713 376.63691532 -83 389 C-84.01279986 385.96160043 -84.01232889 384.82266782 -83.58151817 381.75482464 C-83.46264067 380.88372136 -83.34376317 380.01261808 -83.22128332 379.11511773 C-83.08327294 378.15687421 -82.94526257 377.19863069 -82.80307007 376.21134949 C-82.66200541 375.19296802 -82.52094075 374.17458656 -82.37560141 373.12534505 C-81.89813319 369.69092106 -81.41068997 366.2579858 -80.92333984 362.82495117 C-80.5794531 360.3663049 -80.23618099 357.90757259 -79.89347839 355.44876099 C-79.15005135 350.12492726 -78.40233613 344.80172219 -77.65082932 339.47902489 C-76.54986294 331.68098796 -75.45688589 323.8818469 -74.36576219 316.08242742 C-72.57637168 303.29320731 -70.78086757 290.50485325 -68.98144531 277.71704102 C-67.2661976 265.5273123 -65.553131 253.3372814 -63.84375 241.14672852 C-63.74020623 240.40830612 -63.63666245 239.66988373 -63.52998099 238.9090849 C-62.80110731 233.71089253 -62.07240131 228.51267667 -61.34375 223.31445312 C-60.61885824 218.1430672 -59.89396237 212.97168185 -59.16900501 207.80030511 C-58.96297052 206.33058744 -58.75694127 204.86086904 -58.5509173 203.39114989 C-57.12041565 193.18666958 -55.68770937 182.9825009 -54.25353673 172.77853592 C-50.61464235 146.88606941 -46.9847876 120.99262813 -43.43581748 95.0876435 C-42.96625188 91.66027131 -42.4960688 88.23298434 -42.02572823 84.80571842 C-40.74424801 75.4642596 -39.46485348 66.1225588 -38.20015812 56.77881098 C-37.70470234 53.12604376 -37.20475452 49.4739015 -36.70363951 45.82190681 C-36.47683146 44.16109145 -36.25206345 42.49999596 -36.02954531 40.8386004 C-35.72924776 38.59736326 -35.42194859 36.35719264 -35.11294556 34.11714172 C-34.94488214 32.8773673 -34.77681873 31.63759287 -34.60366249 30.36024952 C-33.13587567 22.18990594 -33.13587567 22.18990594 -30.43457031 19.36010742 C-29.82194336 18.94607666 -29.20931641 18.5320459 -28.578125 18.10546875 C-27.88847656 17.62883789 -27.19882813 17.15220703 -26.48828125 16.66113281 C-25.74964844 16.17483398 -25.01101562 15.68853516 -24.25 15.1875 C-23.49589844 14.67413086 -22.74179688 14.16076172 -21.96484375 13.63183594 C-19.65543341 12.06861743 -17.33089831 10.53095384 -15 9 C-14.28908203 8.52965332 -13.57816406 8.05930664 -12.84570312 7.57470703 C-1.36738218 0 -1.36738218 0 0 0 Z " fill="#0076D4" transform="translate(126,267)"/>
<path d="M0 0 C17.49 0 34.98 0 53 0 C60.875 24.125 60.875 24.125 63.28857422 31.52392578 C68.79279872 48.3725316 74.39461176 65.18383527 80 82 C88.91 54.94 97.82 27.88 107 0 C124.16 0 141.32 0 159 0 C159 45.54 159 91.08 159 138 C147.78 138 136.56 138 125 138 C124.67 111.93 124.34 85.86 124 59 C122.13472656 64.53523438 120.26945313 70.07046875 118.34765625 75.7734375 C117.16747808 79.27349176 115.98721441 82.77351672 114.80664062 86.2734375 C112.93153178 91.83239914 111.05674575 97.39146824 109.18383789 102.95117188 C107.67436622 107.43195431 106.16348387 111.91225874 104.65160942 116.39223099 C104.07416632 118.10413176 103.49723747 119.81620608 102.92082405 121.52845383 C102.11531227 123.92095642 101.30799777 126.31284337 100.50024414 128.70458984 C100.26072021 129.41740616 100.02119629 130.13022247 99.77441406 130.86463928 C98.11405216 135.77189568 98.11405216 135.77189568 97 138 C86.11 138 75.22 138 64 138 C59.50062522 126.75156304 59.50062522 126.75156304 58.08056641 122.45288086 C57.7598819 121.48744858 57.43919739 120.5220163 57.10879517 119.52732849 C56.77640839 118.51670853 56.44402161 117.50608856 56.1015625 116.46484375 C55.74411957 115.38731339 55.38667664 114.30978302 55.0184021 113.19960022 C53.88437231 109.77985103 52.75438042 106.35878718 51.625 102.9375 C50.50226577 99.54137464 49.37858218 96.14557108 48.25302124 92.75038147 C47.5566277 90.64926674 46.86183057 88.54762179 46.1690979 86.44529724 C43.23407902 77.58161977 40.10976028 68.81098745 37 60 C36.67 85.74 36.34 111.48 36 138 C24.12 138 12.24 138 0 138 C0 92.46 0 46.92 0 0 Z " fill="#0076D4" transform="translate(862,372)"/>
<path d="M0 0 C-0.61033822 9.04426082 -1.54596877 18.00637141 -2.70800781 26.99526978 C-2.88167507 28.35725086 -3.0550576 29.71926828 -3.22818375 31.08131826 C-3.69993909 34.78624888 -4.17571424 38.49065333 -4.65221214 42.19497657 C-5.16718755 46.20408494 -5.67837471 50.21367664 -6.19006348 54.22320557 C-7.19081317 62.06012322 -8.19506804 69.8965878 -9.20059776 77.73289342 C-10.01743404 84.09920783 -10.83296861 90.46568775 -11.64758301 96.83228683 C-11.82179445 98.19382326 -11.82179445 98.19382326 -11.99952531 99.58286547 C-12.23547528 101.42696392 -12.471422 103.27106278 -12.70736551 105.11516206 C-14.91612467 122.37732813 -17.12884472 139.63898467 -19.34295893 156.90046458 C-21.24336558 171.71695036 -23.14047047 186.53385583 -25.03515625 201.35107422 C-27.23681099 218.56889861 -29.44041226 235.78647197 -31.64719772 253.00363958 C-31.88227301 254.83771638 -32.11734611 256.67179346 -32.35241699 258.50587082 C-32.46807392 259.40824201 -32.58373085 260.3106132 -32.70289254 261.24032898 C-33.51856647 267.60537703 -34.33284986 273.9706021 -35.14660645 280.33589554 C-36.13708354 288.08318809 -37.12971755 295.83020059 -38.12514305 303.57685895 C-38.63311455 307.53044814 -39.14010482 311.48415668 -39.64448547 315.43820572 C-40.10573491 319.05390806 -40.56975695 322.66924309 -41.03604078 326.28429954 C-41.28482065 328.21880111 -41.5306098 330.15368655 -41.77630997 332.08858168 C-41.92398693 333.22909149 -42.07166389 334.3696013 -42.22381592 335.54467201 C-42.35048016 336.53287205 -42.47714439 337.52107209 -42.60764694 338.53921759 C-43 341 -43 341 -44 344 C-43.36425049 343.98428955 -42.72850098 343.9685791 -42.07348633 343.95239258 C30.56507003 342.41927851 102.34361105 364.56571747 155.4453125 415.2578125 C162.14648126 421.77388208 168.30685945 428.57502998 174 436 C174.41958984 436.53786133 174.83917969 437.07572266 175.27148438 437.62988281 C185.52736088 450.82777352 193.79947173 465.0555148 201 480.125 C201.54261475 481.26050293 201.54261475 481.26050293 202.09619141 482.41894531 C208.55839835 496.32480496 208.55839835 496.32480496 207 501 C206.68885254 500.43716309 206.37770508 499.87432617 206.05712891 499.29443359 C194.50623966 478.49435524 181.32781736 460.32893901 165 443 C164.27167969 442.21753906 163.54335938 441.43507813 162.79296875 440.62890625 C156.9565374 434.55425321 150.5021091 429.41274108 143.79101562 424.35107422 C142.64749553 423.48844606 141.50775435 422.62076993 140.37304688 421.74658203 C96.14184159 387.7510367 35.57928586 370.75743617 -19.78125 370.8671875 C-20.87481812 370.86623077 -21.96838623 370.86527405 -23.09509277 370.86428833 C-25.39770567 370.86361193 -27.70032053 370.86542824 -30.00292969 370.86962891 C-33.46293612 370.87494307 -36.92281026 370.86968684 -40.3828125 370.86328125 C-53.28838391 370.85981201 -66.12197515 371.14393505 -79 372 C-78.35855057 363.18050791 -77.34485665 354.44550194 -76.16705322 345.68287659 C-75.97977297 344.27368312 -75.79274059 342.86445669 -75.605932 341.45520061 C-75.09609475 337.6150644 -74.58253164 333.77543474 -74.06825209 329.93589127 C-73.62664577 326.63521715 -73.18725961 323.33424897 -72.74787501 320.03327847 C-71.17684741 308.2309649 -69.59708002 296.42982646 -68.015625 284.62890625 C-67.89081485 283.697396 -67.7660047 282.76588574 -67.63741243 281.8061479 C-65.15745457 263.29749034 -62.67419267 244.78927724 -60.18396378 226.28199863 C-59.63789423 222.22324314 -59.09187014 218.16448154 -58.54589844 214.10571289 C-58.41020721 213.09700144 -58.27451599 212.08828999 -58.1347129 211.04901152 C-55.93260028 194.67521639 -53.74728515 178.29922348 -51.5685797 161.92229915 C-49.32994649 145.09726397 -47.0753354 128.27442922 -44.80528808 111.45360321 C-43.53170788 102.01330758 -42.26534499 92.57216266 -41.01709747 83.12848091 C-39.95527216 75.09535054 -38.87918439 67.06429793 -37.78418329 59.0356195 C-37.22593955 54.93914164 -36.67467716 50.84203493 -36.14183807 46.74216843 C-35.65405022 42.99017199 -35.14679367 39.24134922 -34.623826 35.49409913 C-34.34989775 33.49406932 -34.09694067 31.49120195 -33.84470773 29.48832041 C-32.46169081 19.80813037 -32.46169081 19.80813037 -29.53062057 16.78227139 C-26.76508063 14.83455044 -24.01869732 12.96554785 -21.11328125 11.23046875 C-20.01048828 10.56982422 -18.90769531 9.90917969 -17.77148438 9.22851562 C-16.92009888 8.7263855 -16.92009888 8.7263855 -16.05151367 8.21411133 C-14.30158478 7.1810563 -12.55966079 6.13540944 -10.81835938 5.08789062 C-2.27170567 0 -2.27170567 0 0 0 Z " fill="#0076D4" transform="translate(192,201)"/>
<path d="M0 0 C3.29778243 0.75967262 5.80017442 1.87881883 8.73828125 3.58203125 C9.64126953 4.10216797 10.54425781 4.62230469 11.47460938 5.15820312 C12.41111328 5.70412109 13.34761719 6.25003906 14.3125 6.8125 C15.23740234 7.34681641 16.16230469 7.88113281 17.11523438 8.43164062 C18.85847128 9.43892677 20.60055683 10.44821025 22.34106445 11.46020508 C25.06430109 13.13177124 25.06430109 13.13177124 28.51601982 14.34143925 C31.0199409 15.79500547 31.86142953 16.64022692 32.91319013 19.37093246 C33.57237612 22.59982485 34.01442019 25.80399178 34.40261841 29.07676697 C34.57658075 30.32814707 34.7505431 31.57952717 34.92977703 32.86882788 C35.41177306 36.34227392 35.85400727 39.8198091 36.28996968 43.29929054 C36.76732157 47.05288331 37.28133929 50.80146918 37.79092407 54.55079651 C38.66989885 61.05561664 39.52553523 67.56316737 40.36551285 74.07313347 C41.58522487 83.52568598 42.84025271 92.97328697 44.10377537 102.42007083 C46.15992251 117.80017368 48.18772231 133.18387588 50.19775391 148.57006836 C52.13838557 163.42454087 54.09169483 178.27724947 56.06298828 193.12768555 C56.18377602 194.03765736 56.30456375 194.94762916 56.42901172 195.88517588 C57.03576374 200.45558227 57.64278565 205.02595278 58.24995446 209.59630382 C59.44034322 218.55715358 60.62912227 227.51821676 61.81710815 236.47938538 C61.99017098 237.78480171 61.99017098 237.78480171 62.16673003 239.11659009 C63.85543398 251.85713805 65.53591793 264.59875084 67.20950317 277.34129333 C67.31489476 278.14367033 67.42028634 278.94604733 67.52887161 279.77273878 C68.54368151 287.49956509 69.55758525 295.22650963 70.57002554 302.95364679 C72.25225234 315.79028368 73.93615745 328.62646095 75.69476318 341.45291138 C75.81843305 342.35660282 75.94210292 343.26029427 76.06952035 344.19137031 C76.60793675 348.11997095 77.15069666 352.04786344 77.70308113 355.9745245 C77.87952597 357.25072942 78.0559708 358.52693434 78.23776245 359.84181213 C78.38721754 360.9039924 78.53667263 361.96617266 78.69065666 363.0605402 C79.00661146 366.06282376 79.05495255 368.98346739 79 372 C77.75162354 371.85925049 76.50324707 371.71850098 75.21704102 371.57348633 C61.76387503 370.13106799 48.46202089 369.63837011 34.9375 369.6875 C33.40319336 369.68973572 33.40319336 369.68973572 31.83789062 369.6920166 C15.37716509 369.7349632 -0.70527934 370.51045427 -17 373 C-18.46421387 373.20882812 -18.46421387 373.20882812 -19.95800781 373.421875 C-66.07099668 380.07323099 -111.85830643 397.12744482 -148 427 C-148.58120605 427.47969238 -149.16241211 427.95938477 -149.76123047 428.45361328 C-160.97596373 437.76977755 -170.95320049 447.5234013 -180 459 C-181.2065625 460.49853516 -181.2065625 460.49853516 -182.4375 462.02734375 C-191.87231547 473.876362 -199.49204648 486.87351173 -207 500 C-208.12267989 496.63196033 -207.94139514 496.1475701 -206.69921875 493 C-206.23068481 491.80745605 -206.23068481 491.80745605 -205.75268555 490.59082031 C-205.40117432 489.73584961 -205.04966309 488.88087891 -204.6875 488 C-204.14379761 486.66727051 -204.14379761 486.66727051 -203.58911133 485.30761719 C-197.10690109 469.76790266 -189.00579636 455.52721064 -179 442 C-178.56606934 441.40912598 -178.13213867 440.81825195 -177.68505859 440.20947266 C-155.25289392 409.93153395 -125.27749229 385.65245922 -91 370 C-90.21431641 369.6380957 -89.42863281 369.27619141 -88.61914062 368.90332031 C-50.69906388 351.59583003 -8.40060881 342.58376848 33.3125 342.9375 C34.35083984 342.94201172 35.38917969 342.94652344 36.45898438 342.95117188 C38.97272544 342.96275594 41.48631649 342.97999799 44 343 C43.82730591 341.96729036 43.65461182 340.93458073 43.47668457 339.87057686 C41.13256778 325.58578124 39.29681555 311.2429948 37.48314667 296.88287544 C37.0271699 293.27779389 36.56780296 289.67314399 36.10888672 286.06843567 C35.21356805 279.0317386 34.32127929 271.99466061 33.43003941 264.9574459 C32.38823886 256.73242787 31.34327468 248.50781265 30.29818439 240.28321208 C28.43083936 225.58688914 26.56618253 210.89022641 24.703125 196.19335938 C22.90283085 181.99163446 21.10085232 167.79012472 19.296875 153.58886719 C19.18585355 152.71488234 19.0748321 151.84089748 18.96044636 150.94042824 C18.73672628 149.17926637 18.51300589 147.41810453 18.28928518 145.65694273 C18.178876 144.78778467 18.06846683 143.9186266 17.95471191 143.02313042 C17.84454821 142.155911 17.73438451 141.28869159 17.62088251 140.39519279 C15.89174791 126.78282288 14.16396731 113.17028106 12.43640184 99.55771192 C11.91725948 95.46711178 11.39805181 91.37651994 10.87869263 87.28594732 C9.78749139 78.6914059 8.69675889 70.09680553 7.60751247 61.50201611 C7.15791915 57.95451818 6.70808987 54.4070507 6.25750732 50.85967827 C4.10534966 33.91414122 2.00847657 16.96320106 0 0 Z " fill="#0076D4" transform="translate(662,204)"/>
<path d="M0 0 C14.7675 -0.0825 29.535 -0.165 44.75 -0.25 C49.3915918 -0.28641602 54.03318359 -0.32283203 58.81542969 -0.36035156 C64.53759766 -0.37841797 64.53759766 -0.37841797 67.22686768 -0.3817749 C69.08221284 -0.38786764 70.9375434 -0.40183175 72.79278564 -0.42230225 C85.81742436 -0.55867584 98.57112737 -0.63092123 109.1875 8.10546875 C120.91292613 20.36157149 122.40323799 34.6617734 122.21875 50.76953125 C121.88052136 62.60119203 118.23931844 73.33790414 110.17578125 82.109375 C99.80582905 91.12024908 87.00711466 92.32279767 73.8671875 92.1953125 C72.74933868 92.1924826 71.63148987 92.18965271 70.47976685 92.18673706 C66.94473099 92.17563217 63.40995797 92.15054578 59.875 92.125 C57.46354535 92.11495767 55.05208669 92.10583402 52.640625 92.09765625 C46.76023642 92.07743483 40.88040892 92.0382673 35 92 C35 107.18 35 122.36 35 138 C23.45 138 11.9 138 0 138 C0 92.46 0 46.92 0 0 Z M35 30 C35 40.23 35 50.46 35 61 C40.30241361 61.06902853 45.6032561 61.12871364 50.90576172 61.16479492 C52.70789892 61.1798424 54.50999973 61.2002853 56.31201172 61.22631836 C58.90862021 61.26288021 61.50474275 61.27976681 64.1015625 61.29296875 C64.9017984 61.30845261 65.7020343 61.32393646 66.52651978 61.33988953 C71.43530908 61.34135243 74.737319 60.69744641 79 58 C83.30811985 53.34257313 84.36819546 49.60597972 84.27734375 43.41796875 C83.82661031 39.48833496 82.56585729 36.0323768 80 33 C74.86588227 29.76333845 70.74537845 29.59661395 64.8828125 29.70703125 C64.02565643 29.71127609 63.16850037 29.71552094 62.28536987 29.71989441 C59.56491836 29.73660114 56.84522518 29.77423781 54.125 29.8125 C52.27344825 29.82755722 50.42188481 29.8412438 48.5703125 29.85351562 C44.04635235 29.88391858 39.52401856 29.94265329 35 30 Z " fill="#0076D4" transform="translate(2364,372)"/>
<path d="M0 0 C27.67953498 -0.16043524 27.67953498 -0.16043524 39.53320312 -0.1953125 C47.60240374 -0.21916768 55.67142323 -0.24669535 63.74047852 -0.30175781 C70.25034898 -0.34541199 76.76002345 -0.36917856 83.27002907 -0.37950897 C85.74617406 -0.38686525 88.22230906 -0.40122982 90.69836998 -0.42292023 C120.39191206 -0.6725493 120.39191206 -0.6725493 131 7.625 C137.7814239 14.30669707 140.78818358 21.98136057 141.12025452 31.41696167 C141.11803391 32.66494537 141.11581329 33.91292908 141.11352539 35.19873047 C141.11367142 35.89211014 141.11381744 36.58548981 141.1139679 37.29988098 C141.11327596 39.57234926 141.1055175 41.84473369 141.09765625 44.1171875 C141.09578951 45.70044917 141.09436682 47.28371142 141.09336853 48.86697388 C141.08956349 53.01962906 141.07975051 57.17224886 141.06866455 61.32489014 C141.05660129 66.31513742 141.0520386 71.30539658 141.04621124 76.2956543 C141.03653758 83.86379408 141.01736698 91.43185636 141 99 C130.77 99 120.54 99 110 99 C109.94392578 91.68908203 109.94392578 91.68908203 109.88671875 84.23046875 C109.85644732 81.14514672 109.82530507 78.05988297 109.79101562 74.97460938 C109.73665754 70.07612001 109.68554934 65.17774593 109.65356445 60.27905273 C109.62757951 56.33016285 109.587212 52.38165934 109.53681374 48.43300819 C109.52011229 46.92555861 109.50861844 45.41804214 109.50238609 43.91051292 C109.4927801 41.80084989 109.46476581 39.69218261 109.43237305 37.58276367 C109.42126999 36.38141281 109.41016693 35.18006195 109.39872742 33.94230652 C109.24707527 31.01109051 109.24707527 31.01109051 107.59797668 29.15107727 C100.74617009 24.21548659 97.66689421 26.64816079 86 26 C86 50.09 86 74.18 86 99 C75.77 99 65.54 99 55 99 C55 74.91 55 50.82 55 26 C46.75 26 38.5 26 30 26 C30 50.09 30 74.18 30 99 C20.1 99 10.2 99 0 99 C0 66.33 0 33.66 0 0 Z " fill="#0077D4" transform="translate(1363,410)"/>
<path d="M0 0 C27.83997021 -0.08021762 27.83997021 -0.08021762 39.72851562 -0.09765625 C47.83311616 -0.10960085 55.93767174 -0.12341394 64.04223633 -0.15087891 C70.57800177 -0.17301684 77.11373687 -0.18457703 83.64953804 -0.18975449 C86.14012987 -0.19344312 88.63071912 -0.20064609 91.12129021 -0.21146011 C94.61599298 -0.22602737 98.11049624 -0.22797573 101.60522461 -0.22705078 C103.14163857 -0.23783661 103.14163857 -0.23783661 104.70909119 -0.24884033 C115.14036905 -0.21906473 123.62157476 1.48805563 132 8 C138.61505612 14.82253943 141.32663309 21.11455008 141.22705078 30.65771484 C141.22734283 31.39986237 141.22763489 32.14200989 141.22793579 32.90664673 C141.22655072 35.34153235 141.21102871 37.77610582 141.1953125 40.2109375 C141.19157944 41.90629916 141.18873385 43.60166299 141.18673706 45.29702759 C141.1791237 49.74564638 141.15949505 54.19413328 141.1373291 58.6427002 C141.11682107 63.18756324 141.10772476 67.73244771 141.09765625 72.27734375 C141.07624687 81.18496292 141.04108357 90.09244982 141 99 C131.1 99 121.2 99 111 99 C110.96261719 94.29363281 110.92523437 89.58726562 110.88671875 84.73828125 C110.85643562 81.75321887 110.82528568 78.76821589 110.79101562 75.78320312 C110.73672674 71.04731258 110.68561555 66.31153951 110.65356445 61.57543945 C110.62751711 57.75621242 110.58710515 53.9373807 110.53681374 50.11839867 C110.52015458 48.66284294 110.50863435 47.20721884 110.50238609 45.75158119 C110.49273415 43.70937482 110.46466477 41.66817753 110.43237305 39.6262207 C110.42126999 38.46484085 110.41016693 37.303461 110.39872742 36.10688782 C109.95752051 32.66899939 109.05660583 30.7649541 107 28 C100.71067925 24.85533962 93.0219554 26.3695766 86 26 C86 50.09 86 74.18 86 99 C75.77 99 65.54 99 55 99 C55 74.91 55 50.82 55 26 C46.75 26 38.5 26 30 26 C30 50.09 30 74.18 30 99 C20.1 99 10.2 99 0 99 C0 66.33 0 33.66 0 0 Z " fill="#0076D4" transform="translate(3016,410)"/>
<path d="M0 0 C9.9 0 19.8 0 30 0 C30.03738281 4.3828125 30.07476563 8.765625 30.11328125 13.28125 C30.15143129 16.79259129 30.19250374 20.30387156 30.2355423 23.81515503 C30.28006433 27.51249087 30.31952739 31.20971702 30.34643555 34.90722656 C30.3725897 38.47360852 30.41307546 42.0395747 30.46318626 45.60569763 C30.48780439 47.61728473 30.49786836 49.62903309 30.50764465 51.64074707 C30.56795859 61.24757576 30.56795859 61.24757576 34 70 C43.70277224 74.10076238 43.70277224 74.10076238 62 74 C62 49.58 62 25.16 62 0 C71.9 0 81.8 0 92 0 C92.09052971 14.1522308 92.16384821 28.30426786 92.20724869 42.45672321 C92.22808341 49.02895721 92.25632633 55.60098205 92.30175781 62.1730957 C92.34536159 68.52086112 92.36916804 74.8684259 92.37950897 81.21632957 C92.38687422 83.63272444 92.40125663 86.04910888 92.42292023 88.46541786 C92.45214656 91.86170423 92.45594787 95.25717167 92.45410156 98.65356445 C92.46848267 99.64259766 92.48286377 100.63163086 92.49768066 101.65063477 C92.43940051 111.62086494 89.48026883 120.29803646 83.0546875 127.9921875 C73.28867112 137.53540502 62.71607866 138.29873399 49.75390625 138.1953125 C48.37385769 138.19157695 46.99380645 138.18873254 45.61375427 138.18673706 C42.00192798 138.17914324 38.39026551 138.15953194 34.77850342 138.1373291 C31.08478002 138.11677846 27.39102986 138.10771573 23.69726562 138.09765625 C16.46476083 138.07628145 9.23242435 138.04113467 2 138 C2 130.08 2 122.16 2 114 C5.61195312 113.96261719 9.22390625 113.92523437 12.9453125 113.88671875 C16.45025631 113.84048461 19.95509413 113.78925766 23.45996094 113.73754883 C25.8925124 113.70433053 28.32514037 113.67628901 30.7578125 113.65356445 C34.25814358 113.61996242 37.75777555 113.56764166 41.2578125 113.51171875 C42.34240753 113.50532883 43.42700256 113.4989389 44.54446411 113.49235535 C52.2444165 113.40290531 52.2444165 113.40290531 59 110 C60.35242176 107.32278992 60.35242176 107.32278992 60.875 104.3125 C61.21144531 102.82169922 61.21144531 102.82169922 61.5546875 101.30078125 C61.70164062 100.54152344 61.84859375 99.78226562 62 99 C61.06317383 99.01571045 60.12634766 99.0314209 59.16113281 99.04760742 C55.62738314 99.0992666 52.09404473 99.13660422 48.56005859 99.16479492 C47.04143879 99.17972112 45.52286083 99.20006959 44.00439453 99.22631836 C31.41689673 99.43818713 17.87194756 99.37892371 8.12890625 90.24609375 C1.97338948 83.70665702 -0.48221233 77.06965455 -0.34057617 68.11523438 C-0.34123329 67.00157501 -0.34123329 67.00157501 -0.34190369 65.86541748 C-0.33983405 63.44124921 -0.31659111 61.01779559 -0.29296875 58.59375 C-0.28736627 56.90124896 -0.28309925 55.20874302 -0.28010559 53.51623535 C-0.26870812 49.08400801 -0.23928546 44.65208045 -0.20599365 40.2199707 C-0.17518225 35.68835504 -0.1615767 31.15669045 -0.14648438 26.625 C-0.11441027 17.74984779 -0.06168464 8.87499585 0 0 Z " fill="#0076D4" transform="translate(1036,411)"/>
<path d="M0 0 C9.9 0 19.8 0 30 0 C30 12.87 30 25.74 30 39 C34.23070313 38.91298828 34.23070313 38.91298828 38.546875 38.82421875 C41.31719154 38.78508339 44.08747579 38.75480447 46.85791016 38.7253418 C48.76462881 38.70039317 50.67125379 38.66642141 52.57763672 38.62280273 C65.87033499 38.32655749 76.95834799 38.51937357 87.5 47.6875 C93.65469994 53.7747142 95.34042329 61.72628903 95.45410156 70.11181641 C95.46793101 73.27583953 95.43200102 76.43785086 95.390625 79.6015625 C95.38315116 81.29120205 95.37746364 82.98085034 95.37347412 84.67050171 C95.35830758 89.08637029 95.31910509 93.50170043 95.2746582 97.9173584 C95.23350999 102.43571695 95.21542164 106.95416375 95.1953125 111.47265625 C95.1526004 120.31537704 95.08232595 129.1575592 95 138 C85.1 138 75.2 138 65 138 C64.96261719 133.29363281 64.92523437 128.58726562 64.88671875 123.73828125 C64.85643562 120.75321887 64.82528568 117.76821589 64.79101562 114.78320312 C64.73672674 110.04731258 64.68561555 105.31153951 64.65356445 100.57543945 C64.62751711 96.75621242 64.58710515 92.9373807 64.53681374 89.11839867 C64.52015458 87.66284294 64.50863435 86.20721884 64.50238609 84.75158119 C64.49273415 82.70937482 64.46466477 80.66817753 64.43237305 78.6262207 C64.42126999 77.46484085 64.41016693 76.303461 64.39872742 75.10688782 C63.95406701 71.64208972 63.08675729 69.77843753 61 67 C52.36198028 61.24132019 40.37499307 64.37053547 30 64 C30 88.42 30 112.84 30 138 C20.1 138 10.2 138 0 138 C0 92.46 0 46.92 0 0 Z " fill="#0076D3" transform="translate(2191,372)"/>
<path d="M0 0 C8.30224557 -0.06805119 16.60427058 -0.1229737 24.90672112 -0.15543652 C28.76279014 -0.17102498 32.61865678 -0.19213675 36.47460938 -0.22631836 C40.20289191 -0.25915757 43.93098101 -0.27690416 47.65939713 -0.28463173 C49.07461716 -0.29013155 50.48982783 -0.30087012 51.90496445 -0.31719017 C63.38389258 -0.44418368 72.93793619 0.34760045 81.95703125 7.9140625 C92.23016556 18.40326656 92.29148736 30.50803396 92.1953125 44.3125 C92.19157696 45.89290182 92.18873255 47.47330597 92.18673706 49.05371094 C92.17914315 53.18994674 92.15953168 57.3260395 92.1373291 61.46221924 C92.11677872 65.69224107 92.10771578 69.92228627 92.09765625 74.15234375 C92.0762813 82.43496108 92.04219731 90.71746269 92 99 C82.39395836 99.06975571 72.788005 99.12294041 63.1817646 99.15543652 C58.72036872 99.17103929 54.25914715 99.19217814 49.79785156 99.22631836 C45.48602478 99.25910527 41.17436484 99.27689346 36.86242294 99.28463173 C35.22392021 99.29014075 33.58542578 99.30089785 31.94699478 99.31719017 C19.61222398 99.43487844 9.24634768 99.19438241 -0.0859375 90.2578125 C-7.04175993 82.05278114 -7.60833695 72.31787183 -7 62 C-6.03357858 54.59784915 -2.7433196 49.81514817 2.0625 44.2265625 C12.9994211 35.936609 26.159805 37.53468299 39.1875 37.75 C41.30532167 37.77009411 43.42316173 37.78833973 45.54101562 37.8046875 C50.69446961 37.84845575 55.84702936 37.91732352 61 38 C60.70996094 36.73027344 60.41992188 35.46054687 60.12109375 34.15234375 C59.95794678 33.43812256 59.7947998 32.72390137 59.62670898 31.98803711 C58.74152737 29.1800769 57.32009856 27.75765043 55 26 C52.03107289 25.01035763 49.98850092 24.84726273 46.88598633 24.79467773 C45.32470757 24.7647599 45.32470757 24.7647599 43.73188782 24.73423767 C42.60993515 24.71752518 41.48798248 24.70081268 40.33203125 24.68359375 C39.18208176 24.66281265 38.03213226 24.64203156 36.84733582 24.62062073 C33.16911875 24.55516658 29.49082952 24.49625926 25.8125 24.4375 C23.32095604 24.39431087 20.82941941 24.35069645 18.33789062 24.30664062 C12.22533335 24.1986881 6.11272233 24.09958334 0 24 C0 16.08 0 8.16 0 0 Z M24 64 C22.99181985 66.80850185 22.79105484 68.33517449 23.6875 71.1875 C25.33336025 73.46035463 26.3647742 74.00462645 29 75 C32.49012357 75.27606779 32.49012357 75.27606779 36.390625 75.1953125 C37.09523865 75.1924826 37.79985229 75.18965271 38.52581787 75.18673706 C40.7673876 75.17557801 43.00855186 75.15048193 45.25 75.125 C46.77343171 75.11496464 48.29686971 75.10583976 49.8203125 75.09765625 C53.54715536 75.07735754 57.27312596 75.03820258 61 75 C61 70.38 61 65.76 61 61 C56.37357074 60.92573644 51.74748991 60.87134508 47.12060547 60.83520508 C45.54730178 60.82013636 43.97403998 60.79967755 42.40087891 60.77368164 C40.13693904 60.73721262 37.87355543 60.72025492 35.609375 60.70703125 C34.55759064 60.68380547 34.55759064 60.68380547 33.48455811 60.66011047 C29.37713409 60.65870112 26.90583665 60.99307905 24 64 Z " fill="#0076D3" transform="translate(2549,411)"/>
<path d="M0 0 C8.28497916 -0.09079429 16.56956389 -0.16399774 24.85490894 -0.20724869 C28.70318575 -0.2280193 32.55110108 -0.25614072 36.39916992 -0.30175781 C40.12098877 -0.34559623 43.84246254 -0.369216 47.56451988 -0.37950897 C48.97614655 -0.38683294 50.38775687 -0.40113267 51.79923439 -0.42292023 C62.54174603 -0.58196861 72.67948688 0.6037735 81.4375 7.3828125 C89.36664748 15.58948014 92.13384261 25.92193241 92.11352539 37.01513672 C92.11367142 37.68900925 92.11381744 38.36288177 92.1139679 39.05717468 C92.11327621 41.26471273 92.10551897 43.47216436 92.09765625 45.6796875 C92.09578942 47.21810866 92.09436677 48.75653042 92.09336853 50.29495239 C92.08956419 54.32924055 92.07975184 58.36349227 92.06866455 62.39776611 C92.0584055 66.52038073 92.05386131 70.64300128 92.04882812 74.765625 C92.03812757 82.84376665 92.02107635 90.92187878 92 99 C82.39395836 99.06975571 72.788005 99.12294041 63.1817646 99.15543652 C58.72036872 99.17103929 54.25914715 99.19217814 49.79785156 99.22631836 C45.48602478 99.25910527 41.17436484 99.27689346 36.86242294 99.28463173 C35.22392021 99.29014075 33.58542578 99.30089785 31.94699478 99.31719017 C19.07574454 99.43999709 8.77079402 98.99973219 -0.859375 89.56640625 C-7.10574711 82.07759881 -7.79896786 73.25069889 -7.38671875 63.81640625 C-6.58676188 55.9218824 -3.78590635 49.52875496 2 44 C7.75712946 40.20318344 12.72669832 37.86738104 19.67675781 37.88647461 C20.59741028 37.88655014 21.51806274 37.88662567 22.46661377 37.88670349 C23.45216248 37.89186478 24.43771118 37.89702606 25.453125 37.90234375 C26.46848328 37.9037587 27.48384155 37.90517365 28.52996826 37.90663147 C31.77000892 37.91222484 35.00998025 37.92477615 38.25 37.9375 C40.44791567 37.94251586 42.64583242 37.94707861 44.84375 37.95117188 C50.22919029 37.9621921 55.61459019 37.97892367 61 38 C60.57405412 36.55903414 60.13373367 35.12231288 59.6875 33.6875 C59.44386719 32.88699219 59.20023438 32.08648437 58.94921875 31.26171875 C57.93644577 28.84856832 57.02964958 27.62873114 55 26 C52.03107289 25.01035763 49.98850092 24.84726273 46.88598633 24.79467773 C45.32470757 24.7647599 45.32470757 24.7647599 43.73188782 24.73423767 C42.60993515 24.71752518 41.48798248 24.70081268 40.33203125 24.68359375 C39.18208176 24.66281265 38.03213226 24.64203156 36.84733582 24.62062073 C33.16911875 24.55516658 29.49082952 24.49625926 25.8125 24.4375 C23.32095604 24.39431087 20.82941941 24.35069645 18.33789062 24.30664062 C12.22533335 24.1986881 6.11272233 24.09958334 0 24 C0 16.08 0 8.16 0 0 Z M24 64 C22.7736836 66.62782086 22.94825977 67.80244639 23.6875 70.625 C25.26901593 73.48679073 25.95566055 73.90137975 29 75 C31.57534673 75.16786322 34.03754393 75.23317374 36.609375 75.1953125 C37.33618469 75.1924826 38.06299438 75.18965271 38.81182861 75.18673706 C41.12472251 75.17557523 43.43722388 75.15047851 45.75 75.125 C47.32160898 75.11496501 48.89322404 75.10584006 50.46484375 75.09765625 C54.31004622 75.07564904 58.15495664 75.04114715 62 75 C62 70.38 62 65.76 62 61 C57.23115433 60.92574857 52.4626464 60.87135064 47.69335938 60.83520508 C46.07155494 60.82013435 44.44979116 60.79967407 42.828125 60.77368164 C40.49468954 60.73722171 38.16179369 60.72025686 35.828125 60.70703125 C35.10506165 60.69154739 34.38199829 60.67606354 33.63702393 60.66011047 C29.47328906 60.65872384 26.96644527 60.9701731 24 64 Z " fill="#0076D4" transform="translate(1148,411)"/>
<path d="M0 0 C8.30224557 -0.06805119 16.60427058 -0.1229737 24.90672112 -0.15543652 C28.76279014 -0.17102498 32.61865678 -0.19213675 36.47460938 -0.22631836 C40.20289191 -0.25915757 43.93098101 -0.27690416 47.65939713 -0.28463173 C49.07461716 -0.29013155 50.48982783 -0.30087012 51.90496445 -0.31719017 C62.78728057 -0.43758325 72.48145765 0.08710171 81.18359375 7.20703125 C88.89533814 14.81926926 92.22508647 23.92067786 92.34057617 34.63110352 C92.35097314 37.63082933 92.32397432 40.62936485 92.29296875 43.62890625 C92.28736409 45.23029684 92.28309811 46.83169261 92.28010559 48.43309021 C92.2687252 52.62035665 92.23931786 56.80730419 92.20599365 60.9944458 C92.17514484 65.27815438 92.1615688 69.56191516 92.14648438 73.84570312 C92.1144406 82.23061407 92.06332815 90.61526721 92 99 C82.4112579 99.09306539 72.82267353 99.16394904 63.23357677 99.20724869 C58.77998481 99.22804024 54.32670398 99.25620175 49.87329102 99.30175781 C45.56793004 99.34551906 41.26286657 99.36920037 36.95730019 99.37950897 C35.32239416 99.38684644 33.68750269 99.40117348 32.05272484 99.42292023 C20.60280404 99.56904597 9.3107024 99.16341597 0.5 90.83984375 C-6.21703523 82.60098022 -7.77584638 73.33538218 -7 63 C-5.16358737 53.57488224 -0.96400434 46.46154353 7 41 C13.43756099 38.00780121 19.71559557 37.53602204 26.72265625 37.48828125 C27.70874374 37.47033005 28.69483124 37.45237885 29.71080017 37.43388367 C32.8279913 37.38015472 35.94503264 37.3460056 39.0625 37.3125 C41.1894738 37.27929387 43.31642793 37.24480121 45.44335938 37.20898438 C50.6287975 37.12444998 55.81419409 37.05746133 61 37 C59.54597757 30.75632108 59.54597757 30.75632108 55.56005859 25.96948242 C50.37552499 24.55761965 45.39189002 24.51919415 40.0390625 24.48828125 C38.89335785 24.47033005 37.7476532 24.45237885 36.56723022 24.43388367 C32.91985721 24.37984563 29.2726146 24.34590482 25.625 24.3125 C23.1471173 24.2793213 20.66925179 24.24483113 18.19140625 24.20898438 C12.12758604 24.12166211 6.06435584 24.06153475 0 24 C0 16.08 0 8.16 0 0 Z M25.53808594 62.83300781 C23.46752997 65.75019111 23.47852044 67.49863723 24 71 C25.85342775 73.55949546 26.93756393 73.97918798 30 75 C32.4410776 75.0845387 34.85259213 75.11605786 37.29296875 75.09765625 C37.99899734 75.0962413 38.70502594 75.09482635 39.43244934 75.09336853 C41.68417626 75.08777764 43.93580321 75.07522688 46.1875 75.0625 C47.71549335 75.05748382 49.24348827 75.05292112 50.77148438 75.04882812 C54.51439228 75.0386627 58.25708443 75.01908569 62 75 C62 70.38 62 65.76 62 61 C57.23118124 60.90099865 52.4629627 60.82847072 47.69335938 60.78027344 C46.07150857 60.76017856 44.44973003 60.73289746 42.828125 60.69824219 C40.4946102 60.6496273 38.16205443 60.62701111 35.828125 60.609375 C35.10506165 60.58872986 34.38199829 60.56808472 33.63702393 60.54681396 C30.19523768 60.54528569 28.33355339 60.75165422 25.53808594 62.83300781 Z " fill="#0076D4" transform="translate(1521,411)"/>
<path d="M0 0 C12.54 0 25.08 0 38 0 C47.01087186 16.32739174 56.01934413 32.65596739 65 49 C67.81475786 45.64382548 70.05420974 42.3259693 72.1015625 38.45703125 C72.95403564 36.85770752 72.95403564 36.85770752 73.82373047 35.22607422 C74.41814941 34.09959473 75.01256836 32.97311523 75.625 31.8125 C76.86882456 29.47734919 78.11362251 27.14271662 79.359375 24.80859375 C80.27879883 23.08358643 80.27879883 23.08358643 81.21679688 21.32373047 C85.05656854 14.16674095 89.03532031 7.08836672 93 0 C105.54 0 118.08 0 131 0 C129.66465722 3.33835695 128.54929347 5.95813394 126.7421875 8.94921875 C126.29004883 9.70090332 125.83791016 10.45258789 125.37207031 11.22705078 C124.87803711 12.03899902 124.38400391 12.85094727 123.875 13.6875 C123.3500293 14.55616699 122.82505859 15.42483398 122.28417969 16.31982422 C115.61115408 27.33631949 108.84147279 38.29399367 102.0770874 49.2545166 C99.09494572 54.08725235 96.11513704 58.92142435 93.13684082 63.75653076 C92.07990325 65.47175754 91.02189411 67.18632387 89.96386719 68.90087891 C89.32739258 69.93390137 88.69091797 70.96692383 88.03515625 72.03125 C87.4719165 72.94455078 86.90867676 73.85785156 86.32836914 74.79882812 C84.14737284 78.41284442 83.85676197 80.49539686 83.79467773 84.73486328 C83.77473251 85.93595734 83.75478729 87.13705139 83.73423767 88.37454224 C83.71752518 89.67664642 83.70081268 90.97875061 83.68359375 92.3203125 C83.66302375 93.66267538 83.64202727 95.00503179 83.62062073 96.34738159 C83.56540469 99.88188438 83.51599342 103.41644557 83.46777344 106.9510498 C83.41755496 110.55726312 83.36192363 114.1633926 83.30664062 117.76953125 C83.1985518 124.84629011 83.0995256 131.92309472 83 139 C71.45 139 59.9 139 48 139 C48.06703125 134.81699219 48.1340625 130.63398438 48.203125 126.32421875 C48.22298038 122.93097218 48.23062865 119.53817163 48.23020935 116.14488983 C48.23303988 112.59376852 48.25597893 109.04572366 48.33251953 105.49536133 C48.68832705 88.16743259 47.78916067 74.89576387 36.49810791 60.90628052 C34.32347856 58.13915438 32.58378627 55.22073412 30.78515625 52.1953125 C30.16817871 51.19048828 29.55120117 50.18566406 28.91552734 49.15039062 C28.30402832 48.15201172 27.6925293 47.15363281 27.0625 46.125 C25.70207852 43.90869725 24.34139751 41.69255379 22.98046875 39.4765625 C21.98345947 37.85282715 21.98345947 37.85282715 20.96630859 36.19628906 C17.43885672 30.46231838 13.88968607 24.74178107 10.33618164 19.02392578 C8.88552987 16.68581362 7.44160659 14.34369845 6 12 C5.43958008 11.09507812 4.87916016 10.19015625 4.30175781 9.2578125 C3.75100586 8.35804688 3.20025391 7.45828125 2.6328125 6.53125 C2.1289502 5.71205078 1.62508789 4.89285156 1.10595703 4.04882812 C0 2 0 2 0 0 Z " fill="#0076D4" transform="translate(1776,371)"/>
<path d="M0 0 C2.8125 2.4375 2.8125 2.4375 5 5 C5.71736328 5.73283203 5.71736328 5.73283203 6.44921875 6.48046875 C16.69641901 17.34714711 18.62526842 31.56967068 18.24609375 45.9375 C17.60217322 59.41818447 13.22277115 71.280094 3.9765625 81.21875 C-7.58614514 91.6388976 -22.76880463 93.98852789 -37.82421875 94.00390625 C-52.61381165 93.20666747 -66.63825009 89.05402199 -77 78 C-87.41312933 65.48978213 -88.94483235 49.67021944 -88 34 C-86.56367656 22.0468676 -82.20327001 10.19441044 -73 2 C-52.41414436 -13.03094222 -21.25581257 -13.96912097 0 0 Z M-52.375 21.75 C-55.6587284 28.31745681 -56.36643227 34.70980522 -56.3125 41.9375 C-56.30686035 42.72874268 -56.3012207 43.51998535 -56.29541016 44.33520508 C-56.11784829 52.86081152 -54.59548049 59.30429423 -48.58203125 65.625 C-43.83512112 69.75070955 -37.88664657 69.37191893 -31.90625 69.24609375 C-26.44669544 68.78379276 -23.32603794 67.23562627 -19.25 63.4375 C-12.57625645 54.38499638 -12.9936787 42.13753645 -14.31640625 31.44140625 C-15.52537383 25.85401554 -17.87113574 20.5966482 -22.5 17.125 C-32.47232701 12.63745285 -45.0122722 13.22473623 -52.375 21.75 Z " fill="#0076D4" transform="translate(2896,418)"/>
<path d="M0 0 C9.30012265 7.37648165 15.47000199 18.15199299 17.3984375 29.90234375 C18.90599287 48.33250222 17.30329191 63.7403674 5.94921875 78.828125 C-0.47748889 86.12899438 -11.95072059 91.71297943 -21.6015625 92.90234375 C-23.19484375 93.09957031 -23.19484375 93.09957031 -24.8203125 93.30078125 C-41.3655365 94.86493058 -58.43518957 93.44917375 -71.796875 82.5546875 C-83.55357072 71.79044012 -87.7222108 59.56443281 -88.5625 43.91015625 C-88.92148295 28.21419939 -84.56534249 14.53085349 -73.86328125 3.03515625 C-55.6470341 -14.53993935 -19.90372216 -13.8041944 0 0 Z M-51.4140625 20.83984375 C-57.90719936 29.93023536 -57.50257804 40.82741968 -56.29296875 51.66796875 C-55.36342349 56.50489451 -53.68424638 59.97892791 -50.6015625 63.90234375 C-50.1478125 64.47984375 -49.6940625 65.05734375 -49.2265625 65.65234375 C-43.62857325 69.95848933 -36.30437144 69.46166293 -29.6015625 68.90234375 C-24.47338877 67.86348719 -21.24454533 64.916771 -17.86328125 61.109375 C-14.38992266 55.03368583 -14.2615621 48.27944332 -14.2890625 41.46484375 C-14.26489258 40.2727832 -14.26489258 40.2727832 -14.24023438 39.05664062 C-14.23455839 32.08085591 -15.70883682 26.01182165 -19.3515625 20.02734375 C-25.1083183 14.59040772 -30.86333804 14.41069537 -38.5078125 14.62109375 C-44.0324692 15.12333527 -47.6865178 16.59667327 -51.4140625 20.83984375 Z " fill="#0076D4" transform="translate(1968.6015625,418.09765625)"/>
<path d="M0 0 C10.23 0 20.46 0 31 0 C31.01417969 4.85074219 31.02835938 9.70148438 31.04296875 14.69921875 C31.06303005 17.77546324 31.08455103 20.85155892 31.11132812 23.92773438 C31.15367525 28.80857145 31.19066398 33.68903131 31.19555664 38.57006836 C31.1998407 42.50616084 31.22831076 46.44140856 31.27343178 50.37723732 C31.28640361 51.87745045 31.29071551 53.37776469 31.28615379 54.87802696 C31.28124482 56.98300315 31.30734475 59.08551298 31.34057617 61.19018555 C31.34723801 62.38709518 31.35389984 63.58400482 31.36076355 64.81718445 C31.84946943 68.77284967 31.84946943 68.77284967 37 73 C45.25 73.33 53.5 73.66 62 74 C62 49.91 62 25.82 62 1 C72.23 1 82.46 1 93 1 C93 33.67 93 66.34 93 100 C82.6875 100.061875 72.375 100.12375 61.75 100.1875 C56.90199707 100.22846802 56.90199707 100.22846802 51.95605469 100.27026367 C49.36133191 100.27903497 46.76660497 100.28667738 44.171875 100.29296875 C43.5148761 100.30080887 42.8578772 100.30864899 42.18096924 100.31672668 C28.91972888 100.46678671 17.09836623 99.26455618 7 90 C1.14335305 83.10982711 -0.2573615 75.14955769 -0.22705078 66.29882812 C-0.22734283 65.57589569 -0.22763489 64.85296326 -0.22793579 64.10812378 C-0.2265567 61.74903821 -0.21106362 59.39027951 -0.1953125 57.03125 C-0.1915773 55.38358737 -0.18873272 53.73592249 -0.18673706 52.08825684 C-0.17914052 47.77447256 -0.15952669 43.46082528 -0.1373291 39.14709473 C-0.11678448 34.73610283 -0.107717 30.32508856 -0.09765625 25.9140625 C-0.07627662 17.27597213 -0.0411274 8.63801895 0 0 Z " fill="#0076D3" transform="translate(1998,410)"/>
<path d="M0 0 C10.1475 -0.061875 20.295 -0.12375 30.75 -0.1875 C33.92979492 -0.21481201 37.10958984 -0.24212402 40.38574219 -0.27026367 C42.93944928 -0.27903522 45.4931606 -0.28667757 48.046875 -0.29296875 C49.9952124 -0.3159906 49.9952124 -0.3159906 51.98291016 -0.33947754 C65.21566457 -0.34323258 76.19818873 1.58831057 86 11 C90.52898507 17.21605712 92.1521984 22.78011652 92.11352539 30.40893555 C92.11367142 31.16039856 92.11381744 31.91186157 92.1139679 32.68609619 C92.11327129 35.16966642 92.10549067 37.65316163 92.09765625 40.13671875 C92.09579118 41.85878966 92.09436769 43.58086111 92.09336853 45.30293274 C92.0895504 49.83539291 92.07972611 54.36782104 92.06866455 58.90026855 C92.05843531 63.52530484 92.05386766 68.15034629 92.04882812 72.77539062 C92.03810322 81.85027676 92.0205121 90.9251307 92 100 C82.1 100 72.2 100 62 100 C61.97421875 95.13765625 61.9484375 90.2753125 61.921875 85.265625 C61.89670771 82.18484309 61.87037603 79.10415948 61.83984375 76.0234375 C61.7914947 71.13378527 61.74745578 66.24436055 61.72900391 61.35449219 C61.71385714 57.41200324 61.67944794 53.47010951 61.63169098 49.52788544 C61.61685653 48.02405725 61.6089578 46.5201441 61.60811615 45.01624298 C61.60575073 42.9089466 61.57871062 40.80330091 61.54589844 38.69628906 C61.53701599 37.49715881 61.52813354 36.29802856 61.51898193 35.06256104 C60.89962242 31.40766251 59.87378127 30.25954691 57 28 C48.92810087 23.96405044 39.01744651 26.36069786 30 26 C30 50.09 30 74.18 30 99 C20.1 99 10.2 99 0 99 C0 66.33 0 33.66 0 0 Z " fill="#0076D3" transform="translate(1255,410)"/>
<path d="M0 0 C1.35019981 0.00636726 1.35019981 0.00636726 2.72767639 0.01286316 C5.58048411 0.02955059 8.43256488 0.06718378 11.28515625 0.10546875 C13.22850537 0.12052845 15.17186564 0.1342146 17.11523438 0.14648438 C21.85987503 0.1768598 26.60295951 0.23559893 31.34765625 0.29296875 C31.34765625 7.88296875 31.34765625 15.47296875 31.34765625 23.29296875 C22.66015625 23.66796875 22.66015625 23.66796875 19.95043945 23.77099609 C15.73099247 23.98014666 12.14209633 24.24587198 8.34765625 26.29296875 C4.76890985 30.63858938 5.11236328 33.17531252 4.34765625 39.29296875 C13.25765625 39.29296875 22.16765625 39.29296875 31.34765625 39.29296875 C31.34765625 47.21296875 31.34765625 55.13296875 31.34765625 63.29296875 C22.43765625 63.29296875 13.52765625 63.29296875 4.34765625 63.29296875 C4.34765625 88.04296875 4.34765625 112.79296875 4.34765625 138.29296875 C-5.88234375 138.29296875 -16.11234375 138.29296875 -26.65234375 138.29296875 C-26.65234375 113.54296875 -26.65234375 88.79296875 -26.65234375 63.29296875 C-32.59234375 63.29296875 -38.53234375 63.29296875 -44.65234375 63.29296875 C-44.65234375 55.37296875 -44.65234375 47.45296875 -44.65234375 39.29296875 C-38.71234375 39.29296875 -32.77234375 39.29296875 -26.65234375 39.29296875 C-26.71421875 36.90046875 -26.77609375 34.50796875 -26.83984375 32.04296875 C-26.90298778 21.72523431 -25.91979614 12.83907675 -18.76171875 4.9140625 C-12.78692952 0.32232633 -7.2742689 -0.13086356 0 0 Z " fill="#0077D4" transform="translate(2772.65234375,371.70703125)"/>
<path d="M0 0 C9.9 0 19.8 0 30 0 C30 12.87 30 25.74 30 39 C39.24 39 48.48 39 58 39 C58 46.92 58 54.84 58 63 C48.76 63 39.52 63 30 63 C30.09711106 68.72955228 30.19995189 74.45841091 30.31738281 80.1875 C30.35558233 82.13502798 30.39045075 84.08262435 30.421875 86.03027344 C30.46772196 88.83553446 30.52568366 91.64032839 30.5859375 94.4453125 C30.60326431 95.74409836 30.60326431 95.74409836 30.62094116 97.06912231 C30.73380887 101.7293059 31.10620851 105.65779763 33 110 C37.31150337 113.98835322 42.75324409 113.54891105 48.3125 113.6875 C53.1078125 113.8421875 53.1078125 113.8421875 58 114 C58 121.92 58 129.84 58 138 C53.66240394 138.19060695 49.32580987 138.3732484 44.98730469 138.53710938 C43.51707241 138.59486621 42.04700117 138.65691141 40.57714844 138.72363281 C15.81781985 139.83830927 15.81781985 139.83830927 7 133 C-0.07951732 124.48186419 -0.29139349 115.0162157 -0.1953125 104.40625 C-0.1924826 103.21898315 -0.18965271 102.03171631 -0.18673706 100.80847168 C-0.17559598 97.03887599 -0.15050226 93.26952315 -0.125 89.5 C-0.11496237 86.93489928 -0.10583789 84.36979481 -0.09765625 81.8046875 C-0.07567647 75.53636562 -0.04118829 69.2682239 0 63 C-5.61 63 -11.22 63 -17 63 C-17 55.08 -17 47.16 -17 39 C-11.39 39 -5.78 39 0 39 C0 26.13 0 13.26 0 0 Z " fill="#0076D3" transform="translate(2662,371)"/>
<path d="M0 0 C9.9 0 19.8 0 30 0 C30 12.87 30 25.74 30 39 C38.91 39 47.82 39 57 39 C57 46.92 57 54.84 57 63 C48.09 63 39.18 63 30 63 C30.11998507 69.03244106 30.24267731 75.06470027 30.37231445 81.09692383 C30.41558198 83.14832298 30.45726275 85.19975625 30.49731445 87.2512207 C30.55521544 90.20274122 30.6188526 93.15409132 30.68359375 96.10546875 C30.70030624 97.02023483 30.71701874 97.93500092 30.73423767 98.87748718 C30.83046804 103.02924105 30.96670315 106.95138848 32 111 C37.30949436 113.14120592 42.23623825 113.42046523 47.875 113.625 C52.391875 113.810625 52.391875 113.810625 57 114 C57 121.92 57 129.84 57 138 C52.64410079 138.1903937 48.28916455 138.37300817 43.93237305 138.53710938 C42.45530852 138.59493898 40.97840247 138.6569977 39.50170898 138.72363281 C14.74118564 139.83193701 14.74118564 139.83193701 6 132 C-0.37526816 124.02615713 -0.2809858 114.9702097 -0.1953125 105.28515625 C-0.1924826 104.07427841 -0.18965271 102.86340057 -0.18673706 101.61582947 C-0.1755803 97.76461732 -0.15048355 93.91364136 -0.125 90.0625 C-0.1149644 87.44466483 -0.10583956 84.82682599 -0.09765625 82.20898438 C-0.07565563 75.80589917 -0.04115642 69.40298958 0 63 C-5.94 63 -11.88 63 -18 63 C-18 55.08 -18 47.16 -18 39 C-12.06 39 -6.12 39 0 39 C0 26.13 0 13.26 0 0 Z " fill="#0076D4" transform="translate(2121,371)"/>
<path d="M0 0 C12.313125 -0.0928125 12.313125 -0.0928125 24.875 -0.1875 C28.73227783 -0.22846802 28.73227783 -0.22846802 32.66748047 -0.27026367 C34.73404472 -0.2790357 36.80061421 -0.28667794 38.8671875 -0.29296875 C39.91720947 -0.30831665 40.96723145 -0.32366455 42.04907227 -0.33947754 C52.58661402 -0.34317147 61.95044382 1.90469331 70 9 C76.29704859 16.40274021 78.35080691 23.86868232 78.125 33.4375 C78.08375 35.933125 78.0425 38.42875 78 41 C68.1 41 58.2 41 48 41 C47.34 38.03 46.68 35.06 46 32 C44.2301177 28.8133497 44.2301177 28.8133497 41 27 C37.37 26.67 33.74 26.34 30 26 C30 50.09 30 74.18 30 99 C20.1 99 10.2 99 0 99 C0 66.33 0 33.66 0 0 Z " fill="#0076D4" transform="translate(2926,410)"/>
<path d="M0 0 C12.313125 -0.0928125 12.313125 -0.0928125 24.875 -0.1875 C28.73227783 -0.22846802 28.73227783 -0.22846802 32.66748047 -0.27026367 C34.73404472 -0.2790357 36.80061421 -0.28667794 38.8671875 -0.29296875 C39.91720947 -0.30831665 40.96723145 -0.32366455 42.04907227 -0.33947754 C52.49866149 -0.34314063 61.28951077 1.62043305 69 9 C75.51433657 16.38291478 77.31215073 22.08480242 77.125 31.8125 C77.08375 34.844375 77.0425 37.87625 77 41 C67.1 41 57.2 41 47 41 C46.01 36.05 46.01 36.05 45 31 C39.54755361 25.54755361 39.48832446 26.94883245 30 26 C30 50.09 30 74.18 30 99 C20.1 99 10.2 99 0 99 C0 66.33 0 33.66 0 0 Z " fill="#0076D3" transform="translate(1629,410)"/>
<path d="M0 0 C10.23 0 20.46 0 31 0 C31 45.54 31 91.08 31 138 C20.77 138 10.54 138 0 138 C0 92.46 0 46.92 0 0 Z " fill="#0076D3" transform="translate(2499,372)"/>
</svg>
