<svg width="101" height="101" viewBox="0 0 101 101" fill="none" xmlns="http://www.w3.org/2000/svg">
<g clip-path="url(#clip0_38133_863)">
<path opacity="0.2" fill-rule="evenodd" clip-rule="evenodd" d="M67.1667 4.34617H33.8333C17.548 4.34617 4.34617 17.548 4.34617 33.8333V67.1667C4.34617 83.4519 17.548 96.6539 33.8333 96.6539H67.1667C83.4519 96.6539 96.6539 83.4519 96.6539 67.1667V33.8333C96.6539 17.548 83.4519 4.34617 67.1667 4.34617ZM33.8333 0.5C15.4238 0.5 0.5 15.4238 0.5 33.8333V67.1667C0.5 85.5761 15.4238 100.5 33.8333 100.5H67.1667C85.5761 100.5 100.5 85.5761 100.5 67.1667V33.8333C100.5 15.4238 85.5761 0.5 67.1667 0.5H33.8333Z" fill="black"/>
<g clip-path="url(#clip1_38133_863)">
<path d="M72.1154 70.9892L72.1079 70.9816L53.9371 52.8954C53.8085 52.7691 53.6561 52.6694 53.4887 52.602C53.3213 52.5346 53.1421 52.5009 52.9615 52.5028C52.781 52.5046 52.6026 52.5421 52.4366 52.6129C52.2706 52.6837 52.1203 52.7866 51.9943 52.9155V52.9155L42.3851 62.4418C39.9474 65.358 41.4105 66.8601 41.4105 66.8601L47.0711 72.7039C47.2157 72.8673 47.3937 72.9979 47.5931 73.0871C47.7926 73.1763 48.0088 73.2219 48.2274 73.221H71.0803C71.0954 73.221 71.1093 73.221 71.1257 73.221C71.3844 73.2195 71.6372 73.1435 71.8536 73.0022C72.0699 72.8608 72.2407 72.6601 72.3453 72.4243C72.4499 72.1885 72.4838 71.9275 72.443 71.6729C72.4022 71.4183 72.2885 71.1808 72.1154 70.9892V70.9892Z" fill="#868686"/>
<path d="M71.0745 30.0033C71.2966 29.7599 71.4199 29.4428 71.4204 29.1138C71.4204 28.7601 71.2802 28.4207 71.0302 28.1695C70.7803 27.9183 70.441 27.7757 70.086 27.7727H70.0696L47.7861 27.784H47.7696C47.4534 27.784 47.1405 27.8491 46.8507 27.9753C46.5609 28.1015 46.3004 28.2861 46.0856 28.5175C44.615 29.997 40.848 33.7322 34.0513 40.1422C24.9622 48.7135 31.4142 57.1754 31.4142 57.1754L39.727 65.4598C37.7766 63.3828 40.1701 60.6439 40.1701 60.6439L70.9886 30.1002C71.0113 30.0788 71.0341 30.0561 71.0555 30.0335L71.077 30.0108L71.0745 30.0033Z" fill="black"/>
</g>
</g>
<defs>
<clipPath id="clip0_38133_863">
<rect width="100" height="100" fill="white" transform="translate(0.5 0.5)"/>
</clipPath>
<clipPath id="clip1_38133_863">
<rect width="45.4545" height="45.4545" fill="white" transform="translate(27.7727 27.7727)"/>
</clipPath>
</defs>
</svg>
